<svg width="159" height="75" viewBox="0 0 159 75" fill="none" xmlns="http://www.w3.org/2000/svg">
<path d="M1 17.999H2H6.47282H7.47282V18.999V30.8725C7.65253 29.8439 8.00295 28.8784 8.52879 27.983L8.53122 27.9789L8.53123 27.9789C9.34894 26.6017 10.4653 25.5275 11.8677 24.7718C13.2868 23.9982 14.8577 23.6187 16.5591 23.6187C18.2176 23.6187 19.7477 23.977 21.1283 24.7104C22.0912 25.222 22.911 25.8924 23.5832 26.7151V25.1922V24.1922H24.5832H25.9629V21.4361V20.4361H26.9629H31.4357H32.4357V21.4361V24.1922H35.2778H36.2778V25.1922V28.6328V29.6328H35.2778H32.4357V34.9119C32.4357 35.3732 32.5433 35.6125 32.6503 35.7436C32.7648 35.8481 32.9625 35.9476 33.3568 35.9476C33.8731 35.9476 34.2534 35.8124 34.5534 35.5816L35.6181 34.7625L36.0973 36.0175L36.7312 37.6778V24.8481V23.8481H37.7312H42.0034H43.0034V24.5553C43.2301 24.429 43.4658 24.3147 43.7103 24.2124L43.7178 24.2092L43.7178 24.2093C44.6898 23.8116 45.7374 23.6187 46.8489 23.6187C48.0736 23.6187 49.211 23.8662 50.2415 24.3798C50.9015 24.6966 51.4823 25.111 51.9804 25.6192C52.5396 25.1129 53.1761 24.6961 53.8857 24.3697L53.8925 24.3666C55.0057 23.8645 56.208 23.6187 57.4862 23.6187C59.6242 23.6187 61.4289 24.2605 62.7808 25.6319C64.1083 26.9411 64.7273 28.8064 64.7889 31.0622C64.9574 29.9625 65.3179 28.9332 65.876 27.983L65.8784 27.9789C66.6961 26.6017 67.8124 25.5275 69.2148 24.7718M1 17.999L69.6915 25.6509M1 17.999V18.999V40.2736V41.2736H2H6.47282H7.47282V40.2736V34.2461C7.65638 35.2935 8.01812 36.2733 8.56346 37.1774C9.39238 38.5517 10.568 39.6219 12.059 40.3887L12.0589 40.3888L12.0691 40.3939C13.5669 41.1428 15.2631 41.503 17.1325 41.503C20.1299 41.503 22.5602 40.6017 24.2508 38.6664L24.8413 37.9904L24.2328 37.3306L21.9197 34.8224H24.5012H25.4272L25.4982 33.8991C25.5527 33.1907 25.5872 32.7262 25.5872 32.6182C25.5872 31.5581 25.4457 30.5605 25.1555 29.6328H25.9629V34.9693C25.9629 36.9659 26.5137 38.6438 27.7681 39.8258L27.768 39.8259L27.775 39.8323C29.027 40.9898 30.7242 41.503 32.726 41.503C33.5056 41.503 34.2542 41.4186 34.9686 41.2454L34.9788 41.243L34.9889 41.2403C35.6343 41.0695 36.2208 40.8246 36.7312 40.4922V41.2736H37.7312H42.2041H43.2041V40.2736V32.5322C43.2041 31.3272 43.4814 30.61 43.8596 30.1964L43.8597 30.1965L43.869 30.186C44.2667 29.7385 44.8023 29.4894 45.5873 29.4894C46.3428 29.4894 46.7504 29.7138 47.0011 30.026C47.2854 30.38 47.5119 31.0245 47.5119 32.1308V40.2736V41.2736H48.5119H52.9847H53.9847V40.2736V32.5322C53.9847 31.3272 54.262 30.61 54.6402 30.1964L54.6403 30.1965L54.6496 30.186C55.0436 29.7427 55.5861 29.4894 56.3967 29.4894C57.0952 29.4894 57.5003 29.7045 57.7709 30.0375L57.7817 30.0508L57.793 30.0637C58.0828 30.3964 58.3212 31.0206 58.3212 32.1308V40.2736V41.2736H59.3212H63.794H64.794V40.2736V34.0899C64.9682 35.1962 65.3383 36.2285 65.9106 37.1774C66.7396 38.5517 67.9151 39.6219 69.4061 40.3887L69.4061 40.3888L69.4163 40.3939C70.9141 41.1428 72.6102 41.503 74.4797 41.503C77.4771 41.503 79.9074 40.6017 81.598 38.6664L82.1885 37.9904L81.58 37.3306L79.2669 34.8224M1 17.999L76.7161 36.5749M69.2148 24.7718C69.2157 24.7714 69.2165 24.7709 69.2174 24.7704L69.6915 25.6509M69.2148 24.7718C69.2141 24.7722 69.2133 24.7726 69.2126 24.773L69.6915 25.6509M69.2148 24.7718C70.6339 23.9982 72.2048 23.6187 73.9062 23.6187C75.5648 23.6187 77.0949 23.977 78.4755 24.7104C79.8673 25.4499 80.9601 26.5211 81.7404 27.9049M69.6915 25.6509C70.953 24.9628 72.3579 24.6187 73.9062 24.6187C75.4163 24.6187 76.783 24.9437 78.0063 25.5936C79.2297 26.2435 80.1854 27.1801 80.8735 28.4034C81.5807 29.6076 81.9344 31.0126 81.9344 32.6182C81.9344 32.6755 81.9057 33.0769 81.8484 33.8224H71.2103C71.3232 34.2089 71.501 34.5393 71.747 34.8224M81.7404 27.9049C81.7389 27.9022 81.7373 27.8996 81.7358 27.897L80.8736 28.4034L81.7451 27.9131C81.7435 27.9104 81.742 27.9076 81.7404 27.9049ZM81.7404 27.9049C82.5475 29.2826 82.9344 30.8649 82.9344 32.6182C82.9344 32.7262 82.8999 33.1907 82.8454 33.8991L82.7744 34.8224H81.8484H79.2669M79.2669 34.8224L79.2002 34.7501L78.507 33.9984L77.7709 34.7082C77.7304 34.7473 77.6896 34.7854 77.6487 34.8224M79.2669 34.8224H79.1218H77.8811H77.6487M77.6487 34.8224H71.747M77.6487 34.8224C77.2376 35.1943 76.8071 35.4631 76.3572 35.6415M71.747 34.8224H70.5414C70.807 35.3215 71.1831 35.7432 71.6698 36.0875C72.4535 36.6418 73.4284 36.919 74.5944 36.919C75.3972 36.919 76.1044 36.8043 76.7161 36.5749M71.747 34.8224C71.8903 34.9874 72.0569 35.1364 72.2473 35.2711C72.8286 35.6823 73.59 35.919 74.5944 35.919C75.3 35.919 75.8817 35.8185 76.3572 35.6415M78.4651 35.428L79.1432 36.1633C79.1485 36.1582 79.1539 36.153 79.1592 36.1479L78.4651 35.428ZM78.4651 35.428L78.2595 35.6176C78.3288 35.5565 78.3973 35.4934 78.4651 35.428ZM76.3572 35.6415C76.3547 35.6425 76.3521 35.6435 76.3496 35.6445L76.7161 36.5749M76.3572 35.6415C76.3598 35.6405 76.3624 35.6395 76.365 35.6386L76.7161 36.5749M14.3998 34.8224H20.3015C19.8905 35.1943 19.46 35.4631 19.0101 35.6415C18.5345 35.8185 17.9528 35.919 17.2472 35.919C16.2429 35.919 15.4815 35.6823 14.9001 35.2711C14.7097 35.1364 14.5432 34.9874 14.3998 34.8224ZM18.4583 29.6486L18.4645 29.6539L18.4707 29.6591C18.663 29.8193 18.8283 30.0026 18.9651 30.2133H14.1665C14.3067 29.9885 14.4773 29.7961 14.6761 29.6304C15.161 29.2263 15.7761 29.002 16.5877 29.002C17.3666 29.002 17.9693 29.2275 18.4583 29.6486ZM75.8055 29.6486L75.8116 29.6539L75.8178 29.6591C76.0102 29.8193 76.1755 30.0026 76.3123 30.2133H71.5136C71.6538 29.9885 71.8245 29.7961 72.0233 29.6304C72.5082 29.2263 73.1232 29.002 73.9349 29.002C74.7137 29.002 75.3165 29.2275 75.8055 29.6486Z" fill="#29292E" stroke="white" stroke-width="2"/>
<path d="M108.086 24.8481L105.018 40.2736H100.775L101.061 38.754C99.7808 39.92 98.2038 40.503 96.3306 40.503C95.1264 40.503 94.0177 40.2258 93.0047 39.6715C91.9916 39.1171 91.1792 38.3239 90.5675 37.2917C89.975 36.2404 89.6787 35.0075 89.6787 33.593C89.6787 31.8918 90.0514 30.3627 90.7969 29.0055C91.5615 27.6293 92.5937 26.5589 93.8935 25.7943C95.1933 25.0106 96.6269 24.6187 98.1943 24.6187C100.564 24.6187 102.237 25.3929 103.212 26.9411L103.613 24.8481H108.086ZM97.7068 36.8043C98.5861 36.8043 99.3698 36.594 100.058 36.1735C100.746 35.7339 101.281 35.1318 101.664 34.3672C102.046 33.6026 102.237 32.7233 102.237 31.7294C102.237 30.678 101.922 29.8466 101.291 29.2349C100.679 28.6232 99.819 28.3174 98.7104 28.3174C97.8311 28.3174 97.0474 28.5372 96.3593 28.9768C95.6711 29.3974 95.1359 29.9899 94.7536 30.7545C94.3713 31.5191 94.1802 32.3984 94.1802 33.3923C94.1802 34.4436 94.486 35.2751 95.0977 35.8868C95.7285 36.4984 96.5982 36.8043 97.7068 36.8043Z" fill="url(#paint0_linear)"/>
<path d="M113.632 40.503C112.294 40.503 111.023 40.3596 109.819 40.0729C108.634 39.767 107.707 39.3752 107.038 38.8973L108.758 35.6574C109.427 36.097 110.239 36.4507 111.195 36.7183C112.17 36.9859 113.145 37.1197 114.119 37.1197C115.133 37.1197 115.888 36.9954 116.385 36.7469C116.882 36.4793 117.13 36.1066 117.13 35.6287C117.13 35.2464 116.91 34.9693 116.471 34.7972C116.031 34.6252 115.324 34.4436 114.349 34.2525C113.24 34.0422 112.323 33.8128 111.596 33.5644C110.889 33.3159 110.268 32.9145 109.733 32.3601C109.217 31.7867 108.959 31.0126 108.959 30.0377C108.959 28.3365 109.666 27.008 111.08 26.0523C112.514 25.0966 114.387 24.6187 116.7 24.6187C117.77 24.6187 118.812 24.7334 119.825 24.9628C120.838 25.1922 121.698 25.5075 122.406 25.909L120.8 29.1776C119.538 28.3939 118.019 28.002 116.241 28.002C115.266 28.002 114.521 28.1454 114.005 28.4321C113.508 28.7188 113.259 29.082 113.259 29.5216C113.259 29.923 113.479 30.2193 113.919 30.4104C114.358 30.5825 115.094 30.7736 116.127 30.9839C117.216 31.1941 118.105 31.4235 118.793 31.672C119.5 31.9014 120.112 32.2932 120.628 32.8476C121.144 33.4019 121.402 34.1569 121.402 35.1126C121.402 36.833 120.676 38.1614 119.223 39.098C117.79 40.0346 115.926 40.503 113.632 40.503Z" fill="url(#paint1_linear)"/>
<path d="M133.595 31.5573L138.899 40.2736H133.71L130.04 34.2812L127.316 36.5462L126.57 40.2736H122.097L126.341 18.999H130.814L128.434 30.8979L135.831 24.8481H141.652L133.595 31.5573Z" fill="url(#paint2_linear)"/>
<path d="M83.0842 15.9024V8.73438C83.0842 5.56737 85.6516 3 88.8186 3H150.463C153.63 3 156.198 5.56737 156.198 8.73438V48.8751C156.198 52.0421 153.63 54.6094 150.463 54.6094H140.428L143.782 70.2603C144.075 71.6282 142.436 72.563 141.408 71.6141L126.092 57.4766H88.8186C85.6516 57.4766 83.0842 54.9093 83.0842 51.7422V48.8751" stroke="url(#paint3_linear)" stroke-width="4.30079"/>
<defs>
<linearGradient id="paint0_linear" x1="89.6787" y1="18.999" x2="101.758" y2="53.1106" gradientUnits="userSpaceOnUse">
<stop stop-color="#667EEA"/>
<stop offset="1" stop-color="#A931F7"/>
</linearGradient>
<linearGradient id="paint1_linear" x1="89.6787" y1="18.999" x2="101.758" y2="53.1106" gradientUnits="userSpaceOnUse">
<stop stop-color="#667EEA"/>
<stop offset="1" stop-color="#A931F7"/>
</linearGradient>
<linearGradient id="paint2_linear" x1="89.6787" y1="18.999" x2="101.758" y2="53.1106" gradientUnits="userSpaceOnUse">
<stop stop-color="#667EEA"/>
<stop offset="1" stop-color="#A931F7"/>
</linearGradient>
<linearGradient id="paint3_linear" x1="83.0842" y1="3" x2="143.295" y2="77.547" gradientUnits="userSpaceOnUse">
<stop stop-color="#667EEA"/>
<stop offset="1" stop-color="#A931F7"/>
</linearGradient>
</defs>
</svg>
